{
    "asset" : {
        "generator" : "Khronos glTF Blender I/O v3.3.32",
        "version" : "2.0"
    },
    "scene" : 0,
    "scenes" : [
        {
            "name" : "Scene",
            "nodes" : [
                0
            ]
        }
    ],
    "nodes" : [
        {
            "mesh" : 0,
            "name" : "Shop"
        }
    ],
    "animations" : [
        {
            "channels" : [
                {
                    "sampler" : 0,
                    "target" : {
                        "node" : 0,
                        "path" : "translation"
                    }
                },
                {
                    "sampler" : 1,
                    "target" : {
                        "node" : 0,
                        "path" : "rotation"
                    }
                },
                {
                    "sampler" : 2,
                    "target" : {
                        "node" : 0,
                        "path" : "scale"
                    }
                }
            ],
            "name" : "Shop",
            "samplers" : [
                {
                    "input" : 20,
                    "interpolation" : "LINEAR",
                    "output" : 21
                },
                {
                    "input" : 20,
                    "interpolation" : "LINEAR",
                    "output" : 22
                },
                {
                    "input" : 20,
                    "interpolation" : "LINEAR",
                    "output" : 23
                }
            ]
        }
    ],
    "materials" : [
        {
            "doubleSided" : true,
            "name" : "Color",
            "pbrMetallicRoughness" : {
                "baseColorFactor" : [
                    0.800000011920929,
                    0.800000011920929,
                    0.800000011920929,
                    1
                ],
                "metallicFactor" : 0,
                "roughnessFactor" : 0.5
            }
        },
        {
            "doubleSided" : true,
            "name" : "ShopWall",
            "pbrMetallicRoughness" : {
                "baseColorFactor" : [
                    0.800000011920929,
                    0.800000011920929,
                    0.800000011920929,
                    1
                ],
                "metallicFactor" : 0,
                "roughnessFactor" : 0.5
            }
        },
        {
            "doubleSided" : true,
            "name" : "Cloth",
            "pbrMetallicRoughness" : {
                "metallicFactor" : 0,
                "roughnessFactor" : 0.5
            }
        },
        {
            "doubleSided" : true,
            "name" : "Door",
            "pbrMetallicRoughness" : {
                "baseColorFactor" : [
                    0.4285714626312256,
                    0.16023342311382294,
                    0.0673469752073288,
                    1
                ],
                "metallicFactor" : 0,
                "roughnessFactor" : 0.5
            }
        },
        {
            "doubleSided" : true,
            "name" : "Window",
            "pbrMetallicRoughness" : {
                "baseColorFactor" : [
                    0.329897403717041,
                    0.6161378026008606,
                    0.8714286684989929,
                    1
                ],
                "metallicFactor" : 0,
                "roughnessFactor" : 0.5
            }
        }
    ],
    "meshes" : [
        {
            "name" : "Cube.034",
            "primitives" : [
                {
                    "attributes" : {
                        "POSITION" : 0,
                        "NORMAL" : 1,
                        "TEXCOORD_0" : 2
                    },
                    "indices" : 3,
                    "material" : 0
                },
                {
                    "attributes" : {
                        "POSITION" : 4,
                        "NORMAL" : 5,
                        "TEXCOORD_0" : 6
                    },
                    "indices" : 7,
                    "material" : 1
                },
                {
                    "attributes" : {
                        "POSITION" : 8,
                        "NORMAL" : 9,
                        "TEXCOORD_0" : 10
                    },
                    "indices" : 11,
                    "material" : 2
                },
                {
                    "attributes" : {
                        "POSITION" : 12,
                        "NORMAL" : 13,
                        "TEXCOORD_0" : 14
                    },
                    "indices" : 15,
                    "material" : 3
                },
                {
                    "attributes" : {
                        "POSITION" : 16,
                        "NORMAL" : 17,
                        "TEXCOORD_0" : 18
                    },
                    "indices" : 19,
                    "material" : 4
                }
            ]
        }
    ],
    "accessors" : [
        {
            "bufferView" : 0,
            "componentType" : 5126,
            "count" : 2605,
            "max" : [
                3.4508795738220215,
                5.224711894989014,
                3.1947269439697266
            ],
            "min" : [
                -3.4508795738220215,
                0,
                -3.706416368484497
            ],
            "type" : "VEC3"
        },
        {
            "bufferView" : 1,
            "componentType" : 5126,
            "count" : 2605,
            "type" : "VEC3"
        },
        {
            "bufferView" : 2,
            "componentType" : 5126,
            "count" : 2605,
            "type" : "VEC2"
        },
        {
            "bufferView" : 3,
            "componentType" : 5123,
            "count" : 13590,
            "type" : "SCALAR"
        },
        {
            "bufferView" : 4,
            "componentType" : 5126,
            "count" : 111,
            "max" : [
                2.5940024852752686,
                4,
                2.5940024852752686
            ],
            "min" : [
                -2.5940024852752686,
                0.3236621022224426,
                -2.5940024852752686
            ],
            "type" : "VEC3"
        },
        {
            "bufferView" : 5,
            "componentType" : 5126,
            "count" : 111,
            "type" : "VEC3"
        },
        {
            "bufferView" : 6,
            "componentType" : 5126,
            "count" : 111,
            "type" : "VEC2"
        },
        {
            "bufferView" : 7,
            "componentType" : 5123,
            "count" : 450,
            "type" : "SCALAR"
        },
        {
            "bufferView" : 8,
            "componentType" : 5126,
            "count" : 1948,
            "max" : [
                1.6666642427444458,
                4.060427665710449,
                -2.5221822261810303
            ],
            "min" : [
                -2.5000033378601074,
                2.7663538455963135,
                -3.7064156532287598
            ],
            "type" : "VEC3"
        },
        {
            "bufferView" : 9,
            "componentType" : 5126,
            "count" : 1948,
            "type" : "VEC3"
        },
        {
            "bufferView" : 10,
            "componentType" : 5126,
            "count" : 1948,
            "type" : "VEC2"
        },
        {
            "bufferView" : 11,
            "componentType" : 5123,
            "count" : 11040,
            "type" : "SCALAR"
        },
        {
            "bufferView" : 12,
            "componentType" : 5126,
            "count" : 169,
            "max" : [
                -0.6913602948188782,
                2.319444417953491,
                -2.4999990463256836
            ],
            "min" : [
                -1.903241515159607,
                0.3194444179534912,
                -2.7540299892425537
            ],
            "type" : "VEC3"
        },
        {
            "bufferView" : 13,
            "componentType" : 5126,
            "count" : 169,
            "type" : "VEC3"
        },
        {
            "bufferView" : 14,
            "componentType" : 5126,
            "count" : 169,
            "type" : "VEC2"
        },
        {
            "bufferView" : 15,
            "componentType" : 5123,
            "count" : 564,
            "type" : "SCALAR"
        },
        {
            "bufferView" : 16,
            "componentType" : 5126,
            "count" : 169,
            "max" : [
                1.6526073217391968,
                2.319444179534912,
                -2.5166244506835938
            ],
            "min" : [
                0.3237629234790802,
                1.042969822883606,
                -2.737406015396118
            ],
            "type" : "VEC3"
        },
        {
            "bufferView" : 17,
            "componentType" : 5126,
            "count" : 169,
            "type" : "VEC3"
        },
        {
            "bufferView" : 18,
            "componentType" : 5126,
            "count" : 169,
            "type" : "VEC2"
        },
        {
            "bufferView" : 19,
            "componentType" : 5123,
            "count" : 564,
            "type" : "SCALAR"
        },
        {
            "bufferView" : 20,
            "componentType" : 5126,
            "count" : 8,
            "max" : [
                0.2916666666666667
            ],
            "min" : [
                0
            ],
            "type" : "SCALAR"
        },
        {
            "bufferView" : 21,
            "componentType" : 5126,
            "count" : 8,
            "type" : "VEC3"
        },
        {
            "bufferView" : 22,
            "componentType" : 5126,
            "count" : 8,
            "type" : "VEC4"
        },
        {
            "bufferView" : 23,
            "componentType" : 5126,
            "count" : 8,
            "type" : "VEC3"
        }
    ],
    "bufferViews" : [
        {
            "buffer" : 0,
            "byteLength" : 31260,
            "byteOffset" : 0,
            "target" : 34962
        },
        {
            "buffer" : 0,
            "byteLength" : 31260,
            "byteOffset" : 31260,
            "target" : 34962
        },
        {
            "buffer" : 0,
            "byteLength" : 20840,
            "byteOffset" : 62520,
            "target" : 34962
        },
        {
            "buffer" : 0,
            "byteLength" : 27180,
            "byteOffset" : 83360,
            "target" : 34963
        },
        {
            "buffer" : 0,
            "byteLength" : 1332,
            "byteOffset" : 110540,
            "target" : 34962
        },
        {
            "buffer" : 0,
            "byteLength" : 1332,
            "byteOffset" : 111872,
            "target" : 34962
        },
        {
            "buffer" : 0,
            "byteLength" : 888,
            "byteOffset" : 113204,
            "target" : 34962
        },
        {
            "buffer" : 0,
            "byteLength" : 900,
            "byteOffset" : 114092,
            "target" : 34963
        },
        {
            "buffer" : 0,
            "byteLength" : 23376,
            "byteOffset" : 114992,
            "target" : 34962
        },
        {
            "buffer" : 0,
            "byteLength" : 23376,
            "byteOffset" : 138368,
            "target" : 34962
        },
        {
            "buffer" : 0,
            "byteLength" : 15584,
            "byteOffset" : 161744,
            "target" : 34962
        },
        {
            "buffer" : 0,
            "byteLength" : 22080,
            "byteOffset" : 177328,
            "target" : 34963
        },
        {
            "buffer" : 0,
            "byteLength" : 2028,
            "byteOffset" : 199408,
            "target" : 34962
        },
        {
            "buffer" : 0,
            "byteLength" : 2028,
            "byteOffset" : 201436,
            "target" : 34962
        },
        {
            "buffer" : 0,
            "byteLength" : 1352,
            "byteOffset" : 203464,
            "target" : 34962
        },
        {
            "buffer" : 0,
            "byteLength" : 1128,
            "byteOffset" : 204816,
            "target" : 34963
        },
        {
            "buffer" : 0,
            "byteLength" : 2028,
            "byteOffset" : 205944,
            "target" : 34962
        },
        {
            "buffer" : 0,
            "byteLength" : 2028,
            "byteOffset" : 207972,
            "target" : 34962
        },
        {
            "buffer" : 0,
            "byteLength" : 1352,
            "byteOffset" : 210000,
            "target" : 34962
        },
        {
            "buffer" : 0,
            "byteLength" : 1128,
            "byteOffset" : 211352,
            "target" : 34963
        },
        {
            "buffer" : 0,
            "byteLength" : 32,
            "byteOffset" : 212480
        },
        {
            "buffer" : 0,
            "byteLength" : 96,
            "byteOffset" : 212512
        },
        {
            "buffer" : 0,
            "byteLength" : 128,
            "byteOffset" : 212608
        },
        {
            "buffer" : 0,
            "byteLength" : 96,
            "byteOffset" : 212736
        }
    ],
    "buffers" : [
        {
            "byteLength" : 212832,
            "uri" : "data:application/octet-stream;base64,"
        }
    ]
}
